<svg width="96" height="96" viewBox="0 0 96 96" fill="none" xmlns="http://www.w3.org/2000/svg">
  <defs>
    <linearGradient id="bg" x1="8" y1="8" x2="88" y2="88" gradientUnits="userSpaceOnUse">
      <stop offset="0" stop-color="#22D3EE"/>
      <stop offset="1" stop-color="#10B981"/>
    </linearGradient>
    <linearGradient id="leaf" x1="48" y1="20" x2="72" y2="52" gradientUnits="userSpaceOnUse">
      <stop offset="0" stop-color="#D9F99D"/>
      <stop offset="1" stop-color="#84CC16"/>
    </linearGradient>
  </defs>

  <rect x="8" y="8" width="80" height="80" rx="24" fill="url(#bg)"/>
  <path d="M48 72V42" stroke="#052E2B" stroke-width="5" stroke-linecap="round"/>
  <path d="M48 42C48 28 57 20 72 18C69 33 61 41 48 42Z" fill="url(#leaf)"/>
  <path d="M48 50C48 40 41 33 28 30C31 43 38 49 48 50Z" fill="#BBF7D0"/>
  <circle cx="58" cy="62" r="7" fill="#E0F2FE"/>
  <path d="M58 55C61.2 59.2 63 62.1 63 64.4C63 67.3 60.8 69.5 58 69.5C55.2 69.5 53 67.3 53 64.4C53 62.1 54.8 59.2 58 55Z" fill="#0EA5E9"/>
</svg>
